<?xml version="1.0" encoding="utf-8"?>
<!-- Generator: Adobe Illustrator 26.3.1, SVG Export Plug-In . SVG Version: 6.00 Build 0)  -->
<svg version="1.1" id="Layer_1" xmlns="http://www.w3.org/2000/svg" xmlns:xlink="http://www.w3.org/1999/xlink" x="0px" y="0px"
	 viewBox="0 0 29.5 49.6" style="enable-background:new 0 0 29.5 49.6;" xml:space="preserve">
<style type="text/css">
	.st0{fill:#fff;}
</style>
<g>
	<path class="st0" d="M25.9,5c-2.5-3.1-6.2-4.6-11-4.6c-5.7,0-9.8,2-12.1,5.8c-1.8,3-2,6.2-2,7.5c0,1.3,0.6,6,1.3,10.5
		c0.4,3.1,0.8,6.1,1,7.4c0.3,3.6,1.2,5.6,3.1,7c1.8,1.3,2.1,3.7,2.1,3.7v7h13.5l0-7c0,0,0.3-2.4,2.1-3.7c1.9-1.4,2.7-3.3,3.1-7
		c0.1-1.6,0.6-5.3,1.1-8.9c0.5-4.1,1.1-8,1.1-9C29,13.3,28.9,8.7,25.9,5z M8.7,48.7l0-1.9H21v1.9H8.7z M28.4,13.7c0,1-0.6,5.1-1.1,9
		c-0.5,3.6-1,7.3-1.1,8.9c-0.3,3.4-1.1,5.3-2.8,6.5c-2,1.5-2.3,4-2.3,4.2v4H8.7l0-4c0-0.1-0.3-2.7-2.3-4.1c-1.7-1.3-2.5-3.1-2.8-6.5
		c-0.1-1.4-0.5-4.3-1-7.5C2,19.8,1.3,15,1.3,13.7c0-3,1-12.7,13.5-12.7c4.6,0,8.2,1.5,10.6,4.4C28.3,8.9,28.4,13.3,28.4,13.7z"/>
	<path class="st0" d="M14.9,2.4c-6.7,0-12.2,5-12.2,11.1c0,6.1,5.5,11.1,12.2,11.1c6.7,0,12.2-5,12.2-11.1l0-0.1l0,0
		C27,7.3,21.5,2.4,14.9,2.4z M26.4,13.7c-0.1,5.8-5.2,10.4-11.6,10.4c-6.4,0-11.6-4.7-11.6-10.6C3.3,7.7,8.5,3,14.9,3
		c6.4,0,11.6,4.7,11.6,10.6L26.4,13.7L26.4,13.7z"/>
	<path class="st0" d="M14.9,11c-1.4,0-2.5,1.1-2.5,2.5s1.1,2.5,2.5,2.5c1.4,0,2.5-1.1,2.5-2.5S16.3,11,14.9,11z M14.9,15.5
		c-1.1,0-2-0.9-2-2s0.9-2,2-2s2,0.9,2,2S15.9,15.5,14.9,15.5z"/>
</g>
</svg>
